<?xml version="1.0" encoding="utf-8"?>
<!-- Generator: Adobe Illustrator 17.0.0, SVG Export Plug-In . SVG Version: 6.00 Build 0)  -->
<!DOCTYPE svg PUBLIC "-//W3C//DTD SVG 1.0//EN" "http://www.w3.org/TR/2001/REC-SVG-20010904/DTD/svg10.dtd">
<svg version="1.0" id="Layer_1" xmlns="http://www.w3.org/2000/svg" xmlns:xlink="http://www.w3.org/1999/xlink" x="0px" y="0px"
	 width="9017.956px" height="5564.718px" viewBox="0 0 9017.956 5564.718" style="enable-background:new 0 0 9017.956 5564.718;"
	 xml:space="preserve">
<style type="text/css">
	.st0{fill:#FFFFFF;}
	.st1{fill-rule:evenodd;clip-rule:evenodd;fill:#FFFFFF;}
</style>
<g>
	<g>
		<path class="st0" d="M3686.759,5331.475c-45.64,24.458-96.663,36.691-153.16,36.691c-28.588,0-54.788-4.736-78.682-13.851
			c-23.853-9.272-44.429-22.393-61.639-39.279c-17.251-16.853-30.737-37.14-40.531-60.951c-9.762-23.571-14.622-49.97-14.622-78.848
			c0-29.601,4.86-56.571,14.622-80.789c9.795-24.176,23.28-44.828,40.531-61.879c17.209-17.093,37.786-30.247,61.639-39.445
			c23.894-9.231,50.094-13.851,78.682-13.851c28.265,0,54.755,3.367,79.454,10.251c24.79,6.718,46.818,18.827,66.416,36.244
			l-48.635,49.124c-11.827-11.503-26.2-20.411-43.127-26.648c-16.894-6.237-34.709-9.396-53.577-9.396
			c-19.158,0-36.492,3.4-52.001,10.201c-15.509,6.851-28.87,16.198-39.968,28.19c-11.263,12.026-19.805,26.034-25.918,42.074
			c-6.121,16.04-9.115,33.291-9.115,51.753c0,19.888,2.994,38.192,9.115,54.871c6.112,16.687,14.655,31.226,25.918,43.417
			c11.097,12.192,24.458,21.746,39.968,28.754c15.509,6.925,32.843,10.442,52.001,10.442c16.72,0,32.52-1.576,47.341-4.694
			c14.779-3.118,27.941-8.103,39.437-14.622v-87.308h-75.804v-59.615h141.656V5331.475z"/>
		<path class="st0" d="M4088.771,4988.712h245.162v59.607h-179.277v90.958h169.806v59.573h-169.806v100.346h188.674v59.615
			l-254.559-0.083V4988.712z"/>
		<path class="st0" d="M5726.489,5075.581c-13.561-14.622-26.764-24.384-39.478-29.244c-12.681-4.902-25.512-7.29-38.392-7.29
			c-19.2,0-36.493,3.367-52.043,10.168c-15.551,6.801-28.788,16.156-39.968,28.224c-11.097,11.993-19.722,26-25.917,41.999
			c-6.071,16.032-9.115,33.324-9.115,51.794c0,19.88,3.043,38.184,9.115,54.83c6.195,16.77,14.821,31.267,25.917,43.451
			c11.18,12.15,24.417,21.746,39.968,28.754c15.55,6.925,32.843,10.409,52.043,10.409c15.061,0,29.559-3.566,43.617-10.649
			c14.132-7.166,27.328-18.627,39.478-34.303l54.432,38.674c-16.77,23.006-37.181,39.727-61.191,50.177
			c-24.052,10.492-49.646,15.75-76.866,15.75c-28.63,0-54.789-4.653-78.683-13.884c-23.853-9.281-44.462-22.36-61.639-39.205
			c-17.292-16.886-30.695-37.172-40.573-60.95c-9.72-23.646-14.663-49.97-14.663-78.882c0-29.567,4.943-56.538,14.663-80.789
			c9.878-24.185,23.281-44.794,40.573-61.879c17.176-17.052,37.786-30.297,61.639-39.445c23.894-9.197,50.053-13.892,78.683-13.892
			c25.03,0,48.319,4.454,69.775,13.361c21.464,8.875,41.435,23.978,59.814,45.192L5726.489,5075.581z"/>
		<path class="st0" d="M6245.053,5200.551l-139.11-211.714h82.738l90.957,147.446l91.969-147.413h78.4l-139.11,211.681v158.385
			h-65.844V5200.551z"/>
		<polygon class="st0" points="2760.359,5177.22 2802.84,5066.989 2844.59,5177.22 2914.324,5177.22 2833.17,4988.588 
			2776.151,4988.588 2694.143,5177.22 		"/>
		<g>
			<polygon class="st0" points="4798.149,5182.769 4798.149,5074.967 4799.119,5074.967 4868.695,5182.769 4946.001,5182.769 
				4819.613,4988.754 4732.264,4988.754 4732.264,5182.769 			"/>
			<rect x="4999.943" y="4988.754" class="st0" width="65.844" height="194.015"/>
		</g>
	</g>
	<g>
		<g>
			<g>
				<path class="st1" d="M2326.922,210.673c3.118,3.973,4.296,9.604,7.489,13.486c-0.73,0.572-1.377,1.136-2.264,1.543
					C2328.465,222.583,2328.423,215.898,2326.922,210.673z"/>
				<path class="st1" d="M2123.51,233.116c2.546,1.941,3.317,5.706,3.077,10.483C2125.169,240.605,2124.804,236.351,2123.51,233.116
					z"/>
				<path class="st1" d="M2252.975,257.732c2.754-0.282,3.608,0.771,5.308,1.543c-1.46,0.97-2.878,2.712-5.308,2.911
					C2252.975,260.85,2252.975,259.274,2252.975,257.732z"/>
				<path class="st1" d="M2246.904,261.423c1.576,0.323,1.576,2.181,3.118,2.43c-0.083,1.252-2.679,0.365-2.314,2.181
					C2246.05,265.951,2247.344,262.675,2246.904,261.423z"/>
				<path class="st1" d="M2488.26,264.657c3.16,3.201,2.347,10.326,5.266,14.091C2488.467,280.092,2485.829,270.529,2488.26,264.657
					z"/>
				<path class="st1" d="M2707.147,491.565c0.605,0.282,0.605,0.763,1.617,0.763c2.952,5.225,1.783,14.622,2.264,22.6
					C2709.129,507.92,2707.752,500.066,2707.147,491.565z"/>
				<path class="st1" d="M2311.172,1002.789c1.534,13.005,0.323,35.439,0.688,52.242
					C2310.119,1041.993,2311.695,1019.277,2311.172,1002.789z"/>
				<path class="st1" d="M2661.1,1078.759c4.985,8.468,2.189,25.76,2.065,37.546c0,1.128-0.564,1.659-0.564,0.688
					C2662.394,1104.155,2660.611,1092.568,2661.1,1078.759z"/>
				<path class="st1" d="M2448.732,1324.054c1.344-1.377,0.29,6.519,0.771,8.7
					C2447.927,1334.255,2448.856,1326.517,2448.732,1324.054z"/>
				<path class="st1" d="M2310.6,1451.86c1.261,16.032,2.43,42.638,1.261,61.15C2311.172,1492.682,2309.912,1473.241,2310.6,1451.86
					z"/>
				<path class="st1" d="M2436.789,1491.952c1.219-1.584,0.406,5.059,0.73,6.842
					C2436.1,1500.577,2436.913,1493.81,2436.789,1491.952z"/>
				<path class="st1" d="M2436.789,1640.94c1.219-2.314,0.406,4.13,0.73,5.872
					C2436.266,1648.753,2436.913,1642.275,2436.789,1640.94z"/>
				<path class="st1" d="M2330.77,1661.708c0-1.087,2.264,5.59,2.106-0.763c1.816,3.682-0.97,9.43,0,15.02
					C2330.405,1673.012,2330.77,1667.099,2330.77,1661.708z"/>
				<path class="st1" d="M2323.115,1671.469c3.525,5.142,4.578,12.963,4.578,21.63c-2.148-6.726-4.014-13.933-6.843-20.087
					C2321.415,1672.406,2322.949,1672.523,2323.115,1671.469z"/>
				<path class="st1" d="M2598.939,1682.691c1.46,0,2.911,0,4.371,0C2603.799,1685.32,2598.209,1686.008,2598.939,1682.691z"/>
				<path class="st1" d="M2598.939,1688.646c0.647,0,1.46,0,2.264,0c-2.264,4.163,1.501,7.896,2.107,11.984
					c1.866,11.578-2.065,23.977-1.46,35.796c0.29,1.46-0.647,1.46-0.647,0.813c-0.439-17.782-1.783-30.944-2.264-46.37
					C2598.939,1690.138,2598.939,1689.45,2598.939,1688.646z"/>
				<path class="st1" d="M2548.762,1711.08c1.742,1.534-0.199,5.582-3.035,5.225
					C2546.614,1714.439,2547.584,1712.697,2548.762,1711.08z"/>
				<path class="st1" d="M2556.334,1719.175c-1.617,0.854-1.335,3.284-3.682,2.961c0-0.572,0-1.377,0-2.107
					C2553.423,1719.382,2554.51,1719.092,2556.334,1719.175z"/>
				<path class="st1" d="M2178.174,1763.198c2.355-4.703,0-9.563,4.495-11.628c0.854,4.296-2.671,6.527-2.14,11.628
					C2179.593,1763.198,2179.029,1763.198,2178.174,1763.198z"/>
				<path class="st1" d="M2502.599,284.587c3.234-1.219,5.059,5.3,8.177,6.718C2506.522,293.494,2505.51,286.121,2502.599,284.587z"
					/>
				<path class="st1" d="M2513.008,291.305c44.255,15.144,70.787,47.788,102.975,74.842c-24.939-9.845-45.433-34.469-70.828-49.372
					C2532.399,309.451,2518.838,305.114,2513.008,291.305z"/>
				<path class="st1" d="M2512.237,298.835c1.534-0.804,4.653,3.4,6.801,4.338C2516.118,305.354,2514.219,300.096,2512.237,298.835z
					"/>
				<path class="st1" d="M2530.217,310.787c3.483,0.365,4.902,2.87,8.012,3.724c-0.605,4.495,1.949,5.466,4.537,6.643
					c0.854,2.181,2.961,2.588,3.807,4.537c-1.617-0.896-2.753-2.148-3.807-3.649C2538.229,318.4,2533.128,315.522,2530.217,310.787z
					"/>
				<path class="st1" d="M2542.202,317.43c13.162,5.217,26.084,17.044,37.944,26.2
					C2568.203,337.186,2554.717,325.69,2542.202,317.43z"/>
				<path class="st1" d="M2556.334,333.263c8.26,3.641,18.105,11.785,26.241,17.815
					C2573.751,347.959,2563.823,339.574,2556.334,333.263z"/>
				<path class="st1" d="M2574.273,350.472c3.16-0.489,7.415,4.86,12.64,5.184c1.451-1.982-2.189-3.89-3.691-5.184
					c5.225,1.294,11.462,8.426,17.981,11.138C2590.513,362.175,2580.834,356.062,2574.273,350.472z"/>
				<path class="st1" d="M2690.701,443.693c5.109,3.649,4.537,12.598,7.373,18.147
					C2695.81,458.514,2690.659,451.912,2690.701,443.693z"/>
				<path class="st1" d="M2327.693,656.75c-3.807,3.193-7.498,6.56-11.338,9.836c-13.568,0.489-26.813,3.765-35.762-2.306
					c-7.29-5.101-5.549-14.091-9.596-22.435c6.967-0.97,2.223,9.554,5.913,11.827c11.495,1.576,15.385,6.917,24.583,7.531
					c8.625-2.231,15.509-1.584,22.393-7.531c1.982-5.184,0.481-13.933,5.3-16.488c3.409,7.531,2.72,18.628-2.264,23.405
					c-0.813,0-0.813-0.357-0.813-0.846C2326.399,658.733,2327.287,657.92,2327.693,656.75z"/>
			</g>
			<g>
				<path class="st0" d="M2240.178,1403.184v-0.083C2240.178,1403.184,2240.178,1403.184,2240.178,1403.184L2240.178,1403.184z"/>
			</g>
			<path class="st1" d="M2660.13,1560.831c1.741-13.884-2.679-30.007,0-42.555c0.439-1.708,0-2.314,2.471-3.002
				c-0.489-2.471-3.077,2.107-2.471-1.617c-2.314-59.98,6.112-112.38,9.032-168.105c0.763-18.744-2.471-36.725,3.881-52.922
				c2.596,28.016,6.079,54.987,9.563,82.166c2.87,1.128,0.157-3.401,2.911-2.314c0.166,3.002,0.73,5.548,1.584,7.614
				c2.264-7.73,2.754-17.292,3.6-26.241c1.783,3.525,1.625,9.032,3.035,12.839c4.785-7.124,1.99-15.269,1.625-23.322
				c-0.605-13.369-0.124-27.983-0.854-40.299c-1.741-34.701,2.314-68.639,0.854-103.141c-3.483-77.554-0.406-154.902-3.724-230.026
				c-1.783-38.997-8.302-78.193-5.391-115.208c2.347-26.971,7.489-55.079,7.489-82.166c-3.799,3.317-3.077,10.89-4.371,16.397
				c0,2.596,0,5.101,0,7.697c0.282,1.169-0.448,2.712-0.771,1.169c0-0.887,0-1.816,0-2.911c0.323-4.661-0.398-9.48,0-14.34
				c2.107-29.434,11.711-57.061,19.158-81.071c3.848-11.578-0.199-28.547,6.76-40.498c0-2.671-3.235,1.335-2.795-0.846
				c4.985-30.537,10.492-73.988,6.038-111.899c-0.522-3.193-3.973-8.178-4.62-11.984c-2.463-14.539,2.472-29.849-0.522-42.679
				c0-2.795-4.86-1.178-5.466-3.649c-1.418-8.625-3.442-18.752-6.56-28.306c-3.765-12.266-5.225-26.2-15.07-30.131
				c-8.053-16.073-22.352-25.835-35.796-36.443c0.448-1.783,4.736,0,5.142-1.543c-0.406-2.754-5.424-1.095-8.219-1.418
				c-45.159-34.012-75.605-82.249-135.868-101.034c-2.878-3.044-5.789-6.121-9.844-8.227c-2.098,0.813,0.365,3.201,0,4.703
				c-11.943-8.061-6.594-28.514-11.943-42.887c-1.617-0.166-0.365,2.878-0.73,3.931c-0.887-19.44-9.355-35.356-9.878-53.138
				c-0.448-1.576-2.388,1.866-2.024,3.931c-3.367-2.795,1.941-9.272,0-12.797c-14.904,8.708-26.283,21.099-38.068,32.677
				c-9.679-0.075-14.381,11.827-21.746,9.115c-2.388-2.588,6.353-6.519,5.988-11.827c-5.706-1.534-6.842,7.78-12.067,9.637
				c-5.665-5.947-12.225-11.819-20.817-14.937c-4.495,1.169-5.217,6.27-7.614,9.554c-4.047-2.264-5.872-6.643-11.014-8.103
				c-2.065,1.136,1.584,5.184-0.605,6.643c-4.412,0.896-7.73,2.43-12.839,2.314c0-4.62,0-9.521,0-14.141
				c-2.994,2.754-1.012,10.367-2.264,14.788c-6.643,1.335-12.756,3.317-20.253,3.881c-3.152-5.947-5.507-12.955-9.513-17.981
				c-1.095,5.955,2.919,13.651,4.495,20.17c-11.702,3.765-28.149,17.616-39.768,7.456c-1.46,1.534,1.982,4.495,0.854,8.261
				c-6.32,0.158-10.044-2.43-15.153-3.765c0.937,3.765,10.292,5.507,10.657,11.943c-3.483,1.377-6.602-3.724-11.379-3.682
				c3.4,1.252,5.623,3.558,9.065,4.528c-3.442,2.513-9.637,2.148-15.667,2.073c-1.095-1.418-1.584-6.851,0.688-7.415
				c-4.055-0.97-1.542,4.371-2.272,6.726c-2.181,0-4.329,0-6.643,0c-1.982,0.763,4.13,3.724,1.46,5.258
				c-2.836,2.389-4.611-1.982-8.177-1.335c-2.389,0.605-2.671,4.172-1.46,6.56c-2.878,0.207-2.306-3.201-5.341-3.118
				c-3.044,1.584-0.125,8.949-3.774,9.919c-12.349-1.451-18.42-9.637-24.574-17.284c-1.908,2.588,3.118,4.976,3.035,8.377
				c-8.667-3.4-13.768-12.913-26.2-9.762c-10.492-9.024-20.046-18.545-29.202-29.235c-0.887-0.241-2.513,2.272-0.73,2.306
				c-9.471-5.142-17.815-17.616-28.431-24.052c-1.617,0.365-0.481,3.566,0.854,3.118c-7.207-0.929-9.073-13.403-14.862-17.939
				c-1.252,14.696,4.172,29.235,2.148,43.409c0.083,3.002-1.095-0.116-2.961,0.647c3.044,18.022,7.456,36.774,12.681,55.244
				c2.795,10.367,7.249,20.527,9.72,30.654c2.024,8.343-0.614,15.791,0,24.093c0.522,9.115,6.436,29.567,10.4,38.715
				c0.937,1.941,1.501,4.777,4.578,5.308c-3.807-1.335-3.201,7.406,0.531,7.406c-7.821,18.669-23.778,29.285-29.65,50.053
				c-1.659-0.282-3.923-1.493-5.3,0c3.4,10.21-10.168,15.799-8.26,26.814c0.481,3.16,3.317,4.62,5.3,7.448
				c5.797,9.438,9.762,22.924,15.675,35.232c6.726,14.174,14.415,26.324,21.016,41.759c6.079,15.625,17.74,30.77,27.336,44.098
				c0,18.263,9.521,32.885,12.067,49.24c2.389,13.486-0.116,28.92,4.578,43.534c3.89-6.312,2.223-15.26,0.605-23.322
				c5.872,23.363,18.545,44.745,18.835,71.84c0,21.987,0.688,43.335,2.347,65.686c1.211,18.993,6.353,37.297,7.373,56.895
				c2.505,48.319,3.682,97.758,5.789,146.276c2.712,54.067,1.211,108.614,4.006,160.002c0.166,2.878,0.929,5.714,0.531,8.103
				c-1.7,49.157-1.501,97.833-1.501,146.069l0.605-0.083l-0.805,36.044c0,2.712-0.124,5.424-0.124,8.219
				c-1.941,15.061-0.199,16.198-0.771,23.811c-1.053,8.062-1.053,8.99-3.077,38.234c-1.659,29.194-2.347,37.985-1.534,45.068
				c0.97,7.124,0,71.724,0,71.724c1.377,17.326,1.377,33.731,0.97,50.053v1.858c-1.866,71.475-16.446,126.836-21.506,144.335
				c-0.929,0.323-1.907,0.605-2.836,1.012c-1.053-0.083-1.46-0.166-3.16-0.489c-0.365,0.97-1.294,1.584-1.858,2.231
				c-124.729,39.08-237.557,107.52-337.944,206.124c-166.969,163.61-250.511,359.366-250.511,587.079
				c0,259.261,91.521,469.158,274.605,629.036c166.48,144.734,353.984,217.063,563.068,217.021
				c236.172,0,437.925-81.436,604.977-244.358c166.198-162.109,249.458-359.491,249.458-592.262
				c0-231.196-82.779-429.548-248.405-594.286c-115.009-114.976-246.058-188.922-393.147-223.789
				c-5.184-45.599-6.237-94.722-8.741-144.568 M2127.641,208.608c-2.471-4.86-2.836-11.255-3.284-17.898
				c3.284,3.525,4.661,8.584,8.302,11.661C2131.489,204.801,2127.715,205.092,2127.641,208.608z M2593.548,1549.577
				c1.012,0.97,1.625,2.231,3.002,2.231c1.816-2.43-2.837-3.002-3.649-5.266c-5.3-68.075-2.795-143.888,0.647-215.039
				c7.216,82.489,8.269,183.896,8.99,268.982c-1.534,0.323-1.053-1.335-2.14-1.584c-2.596,1.99,2.911,2.836,2.14,5.101
				c0.531,16.206-0.722,34.145,0.771,48.759c-0.846,1.377-0.846,3.848-2.911,4.495c0.365,1.377,3.483,7.904,0.804,6.768
				c-3.599,0.323,0.282-2.314-3.848-6.154c-0.804-29.161-2.994-57.185-2.994-87.316c0-1.899-0.406-3.765,2.19-2.994
				C2590.513,1562.656,2595.978,1558.003,2593.548,1549.577z M2598.126,1664.627c1.543,1.252,3.359,2.306,5.184,3.16
				c0,1.252,0,2.389,0,3.682c-2.306,0.166-3.641-0.97-3.724-2.911c-2.389,2.911,3.118,4.13,3.724,6.635
				c-0.846,3.973-1.169,2.314,0,5.797c-1.169,1.7-3.641-0.124-5.184-0.572C2598.126,1676.819,2598.657,1668.351,2598.126,1664.627z
				 M2658.67,1110.35c4.495,40.216,6.361,85.201,9.073,129.224c1.128,21.423,6.801,41.916,0,59.814
				C2661.872,1238.927,2652.069,1176.194,2658.67,1110.35z M2599.586,1075.964c-6.602-41.303-7.697-87.789-11.221-132.26
				C2596.915,979.948,2597.197,1031.095,2599.586,1075.964z M2501.787,797.793c4.984-13.56,9.438-29.434,25.428-26.764
				c-3.442,7.124-10.002,14.987-10.409,22.235c5.225-6.726,7.904-16.206,13.411-22.965c8.012-2.712,13.925-7.489,23.082-8.825
				c6.884,4.528,5.631,12.026,7.406,20.809c3.118,14.058,9.562,27.784,11.993,43.335c1.252,7.448,2.024,14.904,3.035,22.998
				c0,1.302,2.107,0.614,2.264,1.501c2.961,52.4,4.744,105.695,8.916,157.124c2.264,0.854,1.816-4.047,3.036-1.659
				c2.911,29.401,1.46,62.808,11.254,85.367c9.48,62.203-2.836,129.067-7.655,196.329c-1.982,28.265-3.118,57.218-4.371,86.255
				c-1.7,39.694-6.278,79.786-2.952,117.041c1.377,14.614,4.288,37.089,4.288,53.088c0,6.726,0,15.957-0.564,21.705
				c4.006,49.489,5.424,98.654,8.177,148.142c-32.437-4.819-65.479-7.697-99.292-8.75c1.451-39.204,2.463-78.359,5.872-114.685
				l3.118-0.896c-0.448-1.899-1.053-3.483-3.118-5.225c0.282-17.815,0.805-35.149,1.493-51.429
				c5.026-104.882,16.562-208.313,21.016-306.477c0.365-5.706,1.26-11.462,1.26-17.251c0-27.419-6.768-48.352-11.669-73.864
				c-3.923-19.963-6.519-40.78-8.982-61.191c-9.198-72.006-20.295-151.335-15.882-227.953c0.249-1.344-0.887-1.344-1.41-2.389
				c7.083-21.63,14.979-42.646,22.476-64.069c-8.75,13.32-12.515,31.748-19.482,46.976
				C2495.06,818.246,2498.104,807.961,2501.787,797.793z M2450.075,1498.023c-1.501,23.007,2.347,62.087-2.753,85.931
				c-0.323,1.178,0.282,4.943-3.085,4.462c3.691,10.044-5.018,24.823-3.882,39.727c0.406,1.252-0.572,1.534-0.572,0.804
				 M2441.242,1569.133c-1.136-76.012,6.361-150.116,9.72-224.187C2456.428,1417.391,2447.927,1498.794,2441.242,1569.133z
				 M2428.611,1527.101c0-40.415,4.246-80.706,5.913-120.881c2.994-82.05,5.3-163.361,11.943-242.052
				c1.46,43.7-3.16,88.892-6.113,135.221c-6.602,110.356-5.831,226.7-11.744,338.433c6.195-8.144,0.763-28.754,5.142-38.922
				c0,1.219,0,2.513,0,3.973c-0.531-32.603,2.513-66.499,3.036-100.188c-0.523,0.481-0.523,1.816-0.523,2.754
				c1.252-95.9,5.341-194.993,11.661-289.873c1.095,51.471-4.86,105.77-3.036,157.97c4.611-14.821,1.659-33.93,2.43-50.94
				c0.522-17.657,1.41-34.95,2.753-50.177c2.712,16.438-1.053,33.366-0.572,50.177c0.406-0.896,0.406-2.189,0.406-3.483
				c-0.406,57.583-7.614,117.439-9.554,178.306c-1.261,47.987-2.836,96.34-5.831,142.668c-0.979,14.987-3.649,29.891-4.379,44.711
				c-0.481,6.801,0,13.486,0.406,20.245c-0.887,0-1.899,0.083-2.712,0.083C2422.897,1647.699,2428.611,1590.075,2428.611,1527.101z
				 M2414.479,225.702c-3.077-2.795,3.923-7.489,5.872-10.608 M2276.911,653.674c11.495,1.576,15.385,6.917,24.583,7.531
				c8.625-2.231,15.509-1.584,22.393-7.531c1.982-5.184,0.481-13.933,5.3-16.488c3.409,7.531,2.72,18.628-2.264,23.405
				c-0.813,0-0.813-0.357-0.813-0.846c0.29-1.012,1.178-1.825,1.584-2.994c-3.807,3.193-7.498,6.56-11.338,9.836
				c-13.568,0.489-26.813,3.765-35.762-2.306c-7.29-5.101-5.549-14.091-9.596-22.435
				C2277.964,640.876,2273.22,651.401,2276.911,653.674z M2311.861,1055.031c-1.742-13.038-0.166-35.754-0.688-52.242
				C2312.707,1015.793,2311.496,1038.228,2311.861,1055.031z M2307.805,1717.151c-0.323-14.332-1.053-28.348-0.323-40.54
				c0.249-3.442,0.813-7.572,3.691-9.679c9.024,7.332,10.243,22.36,17.251,31.35c-1.136-36.044-5.631-74.312-8.227-109.867
				c-1.053-12.88-1.053-26.241-2.911-36.609c-0.605-2.314-2.107-4.338-2.596-6.602c0.489,3.599,1.667,0.199,1.667,0
				c1.086-9.397-0.854-21.423-1.667-33.092c-2.994-68.68,1.99-126.222-1.252-194.056c-1.294-25.959,0.323-51.919-0.73-77.065
				c-2.588-57.708-4.047-115.009-1.534-167.981c3.152,14.539-2.397,37.902,2.264,49.281c2.554-87.756,0.166-180.123,2.919-267.596
				c0.647-2.347,2.787-2.878,3.077-5.142c0-36.857,6.677-73.507,9.753-107.727c19.241-1.169,28.024,7.937,37.985,15.799
				c1.02-4.984-5.142-7.207-4.412-9.679c1.866,2.024,7.207,3.525,8.26,0c1.584,2.505,4.014,4.611,7.332,5.258
				c2.388,0.406,0.771-3.475,2.347-3.807c9.72,8.385,7.572,24.102,10.45,35.033c2.554,9.803,4.578,25.793,4.578,38.234
				c-0.489,87.913-4.13,180.728-8.427,267.397c-3.118,70.579-16.886,142.345-20.129,213.007
				c-2.629,63.297-5.3,130.808-8.136,191.228c-1.136,26.805-9.438,54.672-16.397,77.065c-2.148,6.237-6.121,12.955-7.58,20.087
				c-2.181,10.127,0.365,20.411-1.377,29.194c-1.775,9.032-4.694,12.681-3.641,20.295c1.335,12.109-4.495,29.235,2.836,41.75
				c3.641-8.219,1.252-22.6,3.193-33.009c1.02,0,2.107-0.042,2.836-0.647c-0.73-7.73,3.118-10.732,5.831-14.904
				c-2.181,27.867-6.56,53.859-10.765,79.819c-8.427,1.219-17.052,1.907-25.396,3.525
				C2308.294,1717.392,2308.054,1717.275,2307.805,1717.151z M2888.937,2976.269c-116.676,117.323-259.991,176.001-429.797,176.001
				c-156.519,0-294.609-57.625-414.155-172.841c-120.193-115.167-180.33-262.131-180.33-441.126
				c0-170.328,57.99-313.32,174.093-429.349c115.938-117.273,258.283-176.075,426.587-176.117
				c169.283,0,311.055,58.761,425.625,176.117c115.291,116.51,173.082,260.962,173.082,433.637
				C3064.042,2712.885,3005.688,2857.453,2888.937,2976.269z"/>
		</g>
		<g>
			<path class="st0" d="M243.21,1412.009h269.91v1969.922H243.21V1412.009z"/>
		</g>
		<path class="st0" d="M8053.67,1687.75c-467.773,0-847.028,379.329-847.028,847.194c0,467.856,379.255,847.186,847.028,847.186
			c467.898,0,847.227-379.329,847.227-847.186C8900.897,2067.079,8521.568,1687.75,8053.67,1687.75z M8053.67,3140.692
			c-334.502,0-605.665-271.213-605.665-605.748c0-334.543,271.163-605.756,605.665-605.756
			c334.709,0,605.831,271.213,605.831,605.756C8659.501,2869.479,8388.38,3140.692,8053.67,3140.692z"/>
		<path class="st0" d="M5258.35,1686.415c-223.258,0-425.699,87.026-577.076,228.16v-502.566h-269.911v1118.233
			c0,1.095-0.125,2.148-0.125,3.326c0,1.128,0.125,2.223,0.125,3.359v845.004h269.911v-229.42
			c151.377,141.217,353.818,228.201,577.076,228.201c467.856,0,847.153-379.288,847.153-847.145
			C6105.503,2065.702,5726.207,1686.415,5258.35,1686.415z M5258.35,3139.315c-270.392,0-499.124-177.178-577.076-421.694
			c-2.264-6.76-3.807-13.768-5.706-20.651c-3.002-10.45-5.839-20.983-8.186-31.674c-1.659-7.406-3.118-14.862-4.454-22.393
			c-2.148-11.421-3.807-22.924-5.267-34.585c-0.887-6.394-1.659-12.797-2.264-19.233c-1.742-18.345-2.878-36.816-2.878-55.518
			c0-18.71,1.136-37.139,2.878-55.443c0.605-6.477,1.377-12.839,2.264-19.275c1.418-11.661,3.119-23.206,5.267-34.626
			c1.335-7.415,2.795-14.987,4.454-22.393c2.347-10.649,5.142-21.099,8.103-31.549c1.941-6.925,3.525-13.975,5.789-20.817
			c77.953-244.474,306.685-421.611,577.076-421.611c334.668,0,605.789,271.171,605.789,605.714
			C5864.139,2868.102,5593.018,3139.315,5258.35,3139.315z"/>
	</g>
</g>
</svg>
