<?xml version="1.0" encoding="utf-8"?>
<!-- Generator: Adobe Illustrator 17.0.0, SVG Export Plug-In . SVG Version: 6.00 Build 0)  -->
<!DOCTYPE svg PUBLIC "-//W3C//DTD SVG 1.1//EN" "http://www.w3.org/Graphics/SVG/1.1/DTD/svg11.dtd">
<svg version="1.1" id="Capa_1" xmlns="http://www.w3.org/2000/svg" xmlns:xlink="http://www.w3.org/1999/xlink" x="0px" y="0px"
	 width="401px" height="751.18px" viewBox="58.705 0 401 751.18" enable-background="new 58.705 0 401 751.18" xml:space="preserve"
	>
<g>
	<path d="M64.303,546.392c0-52.611,19.296-97.814,57.856-135.592c38.418-37.746,84.578-56.639,138.496-56.639
		c53.261,0,98.929,19.05,137.013,57.129c38.268,38.088,57.395,83.868,57.395,137.279c0,53.747-19.228,99.336-57.628,136.791
		c-38.578,37.59-85.145,56.398-139.693,56.398c-48.26,0-91.596-16.708-130.013-50.105C85.433,654.68,64.303,606.26,64.303,546.392z
		 M121.204,546.992c0,41.262,13.864,75.236,41.64,101.818c27.594,26.63,59.475,39.933,95.624,39.933
		c39.222,0,72.302-13.559,99.263-40.643c26.95-27.414,40.436-60.791,40.436-100.144c0-39.843-13.33-73.194-39.96-100.146
		c-26.456-27.082-59.22-40.641-98.286-40.641c-38.899,0-71.751,13.559-98.53,40.641
		C134.591,474.584,121.204,507.647,121.204,546.992z"/>
	<g>
		<path d="M323.197,112.799c1.16-7.046,2.427-17.097,1.349-25.852c-0.094-0.723-0.876-1.891-1.039-2.767
			c-0.538-3.363,0.573-6.897-0.143-9.853c0-0.666-1.098-0.288-1.215-0.865c-0.378-1.959-0.817-4.323-1.559-6.537
			c-0.881-2.818-1.188-6.051-3.451-6.939c-1.871-3.701-5.186-5.959-8.261-8.423c0.083-0.422,1.07,0.022,1.182-0.356
			c-0.112-0.644-1.265-0.244-1.898-0.356c-10.422-7.8-17.49-18.955-31.387-23.304c-0.65-0.716-1.338-1.425-2.269-1.891
			c-0.483,0.2,0.088,0.753,0,1.076c-2.741-1.852-1.498-6.563-2.741-9.897c-0.393-0.022-0.088,0.666-0.171,0.912
			c-0.255-4.479-2.161-8.155-2.269-12.267c-0.123-0.389-0.589,0.426-0.499,0.894c-0.767-0.633,0.459-2.148,0-2.945
			c-3.44,2.019-6.038,4.865-8.799,7.556c-2.214-0.022-3.312,2.706-4.988,2.087c-0.571-0.578,1.454-1.487,1.375-2.73
			c-1.324-0.321-1.603,1.808-2.789,2.218c-1.342-1.353-2.811-2.717-4.806-3.411c-1.043,0.244-1.221,1.414-1.757,2.19
			c-0.949-0.51-1.371-1.542-2.53-1.858c-0.501,0.239,0.345,1.149-0.193,1.505c-0.971,0.222-1.759,0.578-2.939,0.553V8.258
			c-0.69,0.644-0.25,2.37-0.527,3.4c-1.542,0.321-2.963,0.789-4.676,0.898c-0.731-1.353-1.261-2.967-2.225-4.145
			c-0.2,1.382,0.716,3.167,1.059,4.654c-2.695,0.865-6.495,4.077-9.17,1.748c-0.321,0.354,0.466,0.997,0.193,1.896
			c-1.454,0.035-2.308-0.564-3.479-0.898c0.178,0.898,2.326,1.309,2.436,2.789c-0.793,0.301-1.524-0.881-2.64-0.859
			c0.782,0.288,1.327,0.843,2.12,1.048c-0.793,0.567-2.229,0.51-3.633,0.477c-0.226-0.332-0.349-1.581,0.184-1.726
			c-0.922-0.222-0.367,1.043-0.534,1.57h-1.548c-0.455,0.189,0.975,0.843,0.349,1.21c-0.676,0.521-1.059-0.455-1.902-0.321
			c-0.56,0.167-0.595,0.975-0.334,1.52c-0.666,0.055-0.532-0.731-1.204-0.698c-0.698,0.354-0.061,2.04-0.87,2.262
			c-2.88-0.321-4.257-2.218-5.709-3.973c-0.422,0.6,0.705,1.133,0.676,1.92c-1.964-0.786-3.128-2.981-6.018-2.243
			c-2.429-2.08-4.65-4.287-6.719-6.745c-0.169-0.048-0.409,0.239-0.362,0.402c-2.1-1.221-3.991-3.987-6.367-5.434
			c-0.299,0.055-0.233,0.45-0.061,0.624c-1.454-0.422-1.902-3.046-3.211-4.059c-0.299,3.411,0.982,6.756,0.501,10.018
			c0.048,0.709-0.25-0.022-0.687,0.178c0.738,4.167,1.731,8.5,2.919,12.744c0.676,2.39,1.698,4.72,2.251,7.101
			c0.483,1.92-0.127,3.622,0,5.553c0.145,2.102,1.454,6.822,2.414,8.931c0.222,0.444,0.356,1.109,1.059,1.221
			c-0.887-0.301-0.753,1.724,0.138,1.724c-1.81,4.323-5.487,6.741-6.857,11.573c-0.389-0.101-0.905-0.356-1.237,0
			c0.771,2.368-2.335,3.633-1.902,6.179c0.138,0.698,0.771,1.043,1.215,1.709c1.349,2.203,2.251,5.311,3.622,8.144
			c1.57,3.266,3.35,6.062,4.826,9.653c1.447,3.589,4.145,7.112,6.381,10.185c0,4.211,2.17,7.578,2.767,11.367
			c0.521,3.101-0.033,6.679,1.043,10.029c0.894-1.443,0.483-3.505,0.167-5.375c1.349,5.421,4.259,10.341,4.316,16.587
			c0,5.087,0.167,10.042,0.527,15.162c0.314,4.367,1.513,8.621,1.713,13.141c0.597,11.145,0.87,22.584,1.375,33.785
			c0.604,12.489,0.204,25.081,0.859,36.946c0.062,0.633,0.211,1.309,0.174,1.874c-0.4,11.345-0.345,22.595-0.345,33.731l0.127-0.046
			l-0.182,8.355c0,0.644-0.029,1.265-0.029,1.887c-7.999,8.221-0.072,3.721-0.222,5.52c-0.178,1.847-0.178,2.06-0.65,8.799
			c-0.437,6.756-0.564,8.788-0.382,10.435c0.222,1.643,0,16.576,0,16.576c0.305,3.967,0.305,7.806,0.222,11.516v0.455
			c-0.47,16.827-3.927,29.865-5.047,33.625c-0.053-0.007-0.171-0.02-0.266-0.031c0.011,0.035,0.02,0.07,0.031,0.105
			c6.071,0.731,12.113,1.707,18.167,2.563c1.432,0.202,2.697,0.804,3.782,1.663c2.133-1.41,3.758-2.528,4.808-3.433
			c-0.222,1.441-0.494,2.805-0.672,4.25h26.234c0-0.534-0.305-0.81-0.185-1.511c0.909,0.244,1.524,0.756,1.913,1.511h11.345
			c0.903-13.225,0.727-27.416,1.909-39.971l0.696-0.211c-0.094-0.444-0.204-0.775-0.696-1.21c0.064-4.099,0.187-8.1,0.36-11.854
			c1.164-24.238,3.798-48.102,4.837-70.798c0.077-1.309,0.312-2.629,0.312-3.967c0-6.33-1.566-11.173-2.719-17.066
			c-0.903-4.61-1.487-9.418-2.091-14.141c-2.102-16.642-4.67-34.95-3.624-52.635c0.051-0.312-0.2-0.312-0.336-0.556
			c1.652-4.997,3.448-9.853,5.17-14.806c-2.019,3.101-2.858,7.378-4.476,10.861c0.356-1.843,1.052-4.257,1.885-6.574
			c1.177-3.156,2.21-6.789,5.882-6.181c-0.782,1.625-2.297,3.444-2.409,5.137c1.206-1.57,1.832-3.756,3.108-5.326
			c1.876-0.633,3.218-1.731,5.326-2.04c1.603,1.065,1.32,2.768,1.724,4.832c0.731,3.211,2.218,6.407,2.77,9.974
			c0.27,1.726,0.466,3.468,0.694,5.344c0,0.283,0.488,0.134,0.514,0.327c0.727,12.104,1.098,24.424,2.062,36.281
			c0.516,0.224,0.433-0.938,0.712-0.378c0.648,6.785,0.323,14.518,2.585,19.706c2.229,14.384-0.65,29.786-1.742,45.367
			c-0.483,6.49-0.727,13.209-1.039,19.867c-0.395,9.188-1.454,18.441-0.672,27.049c0.318,3.389,1.032,8.575,1.032,12.276
			c-0.033,1.52,0,3.686-0.165,4.99c1.263,15.272,1.059,30.322,2.585,45.701h16.888c-2.464-12.693-2.53-27.106-3.268-41.734
			c1.382-0.881,1.77,0.134,3.101-0.881c0.549-0.58-0.626-1.355-0.149-1.867c-0.698-0.2-1.329-0.521-1.731,0.178
			c0.16-0.865-0.51-2.484-1.221-2.44c0.404-3.178-0.633-6.89,0-9.792c0.105-0.444-0.022-0.578,0.545-0.709
			c-0.112-0.589-0.694,0.468-0.545-0.378c-0.554-13.853,1.436-25.962,2.08-38.804c0.2-4.323-0.567-8.511,0.872-12.238
			c0.615,6.475,1.419,12.715,2.243,18.975c0.65,0.255,0.029-0.778,0.672-0.532c0.029,0.696,0.149,1.263,0.343,1.753
			c0.549-1.777,0.668-3.989,0.883-6.053c0.382,0.821,0.325,2.087,0.659,2.952c1.083-1.654,0.472-3.508,0.367-5.386
			c-0.123-3.073-0.033-6.475-0.178-9.289c-0.371-8.021,0.505-15.856,0.178-23.827c-0.804-17.908-0.094-35.771-0.85-53.145
			c-0.393-8.966-1.902-18.052-1.221-26.575c0.516-6.229,1.702-12.709,1.702-18.951c-0.854,0.734-0.685,2.508-1.004,3.773v1.746
			c0.072,0.299-0.11,0.633-0.182,0.299v-0.677c0.072-1.109-0.083-2.179,0-3.299c0.527-6.829,2.697-13.176,4.459-18.74
			c0.876-2.702-0.059-6.613,1.538-9.341C323.836,112.362,323.08,113.322,323.197,112.799z M188.285,8.972
			c-0.56-1.087-0.659-2.596-0.753-4.145c0.753,0.826,1.103,2.003,1.909,2.724C189.184,8.106,188.329,8.172,188.285,8.972z
			 M216.05,22.247c-0.406-0.022-0.105-0.756-0.182-1.065c0.349,0.068,0.316,0.49,0.705,0.556
			C216.538,22.036,215.967,21.825,216.05,22.247z M217.236,21.36v-1.032c0.65-0.077,0.854,0.178,1.215,0.367
			C218.108,20.938,217.81,21.316,217.236,21.36z M234.303,9.481c0.727,0.883,1.004,2.181,1.731,3.079
			c-0.123,0.156-0.283,0.288-0.51,0.356C234.685,12.205,234.658,10.663,234.303,9.481z M223.632,114.209
			c-1.702-1.188-1.281-3.268-2.229-5.177c1.625-0.222,0.494,2.199,1.349,2.73c2.669,0.345,3.589,1.592,5.691,1.726
			c2.003-0.488,3.574-0.367,5.199-1.726c0.455-1.221,0.116-3.218,1.182-3.804c0.786,1.731,0.655,4.283-0.521,5.399
			c-0.149,0-0.149-0.088-0.149-0.2c0.055-0.244,0.237-0.422,0.345-0.666c-0.865,0.72-1.702,1.476-2.614,2.24
			C228.75,114.864,225.693,115.617,223.632,114.209z M230.852,204.445c-0.404-2.996-0.029-8.243-0.149-12.076
			C231.063,195.392,230.758,200.577,230.852,204.445z M248.287,212.555c-0.756,16.278-3.916,32.87-4.665,49.18
			c-0.615,14.617-1.232,30.207-1.882,44.157c-0.294,6.176-2.163,12.621-3.811,17.787c-0.466,1.43-1.375,3.014-1.735,4.654
			c-0.494,2.326,0.088,4.689-0.312,6.715c-0.422,2.084-1.087,2.952-0.854,4.676c0.327,2.818-1.059,6.813,0.672,9.662
			c0.826-1.896,0.277-5.225,0.723-7.611c0.244,0,0.527-0.035,0.672-0.167c-0.145-1.775,0.731-2.484,1.353-3.455
			c-0.622,7.571-1.83,14.516-2.985,21.551c-1.461-0.633-3.716-1.21-5.553-2.363c-0.088-3.262-0.25-6.578-0.088-9.352
			c0.055-0.789,0.193-1.744,0.881-2.254c2.093,1.731,2.335,5.181,3.956,7.257c-0.268-8.309-1.287-17.159-1.865-25.369
			c-0.261-2.945-0.261-6.086-0.716-8.454c-0.081-0.404-0.27-0.771-0.4-1.142c-0.055,0.013-0.103-0.075-0.123-0.389
			c0.013,0.134,0.077,0.259,0.123,0.389c0.094-0.022,0.204-0.354,0.204-0.389c0.244-2.148-0.189-4.955-0.327-7.635
			c-0.731-15.845,0.411-29.151-0.349-44.836c-0.299-5.988,0.066-11.966-0.145-17.798c-0.615-13.319-0.964-26.55-0.36-38.76
			c0.716,3.334-0.578,8.777,0.505,11.369c0.567-20.266,0.055-41.585,0.676-61.79c0.134-0.543,0.633-0.677,0.723-1.186
			c0-8.522,1.548-16.976,2.218-24.877c4.454-0.266,6.462,1.841,8.799,3.644c0.222-1.164-1.149-1.669-1.015-2.247
			c0.422,0.466,1.647,0.839,1.924,0c0.345,0.6,0.905,1.059,1.693,1.215c0.549,0.09,0.143-0.815,0.51-0.859
			c2.251,1.924,1.77,5.537,2.396,8.087c0.615,2.236,1.065,5.93,1.065,8.821C250.113,171.077,249.236,192.534,248.287,212.555z
			 M235.7,347.833c-0.571-0.677-0.494-2.03-0.494-3.284c0-0.266,0.542,1.287,0.494-0.143
			C236.093,345.228,235.478,346.557,235.7,347.833z M230.547,296.087c0.305,3.69,0.582,9.84,0.305,14.119
			C230.701,305.529,230.397,301.018,230.547,296.087z M232.943,347.158c0.094-0.156,0.483-0.101,0.505-0.356
			c0.804,1.188,1.048,2.974,1.048,5.004C233.969,350.242,233.593,348.577,232.943,347.158z M255.905,10.485
			c0.538,0.499-1.094,1.63-1.386,2.429C253.835,12.284,255.478,11.208,255.905,10.485z M259.682,339.723
			c0.294-0.49,0.11,0.997,0.187,1.353C259.57,341.542,259.737,340.055,259.682,339.723z M259.173,339.534
			c-0.233,3.484-0.837,6.956-1.026,10.341c-0.206,3.117,0.527,6.337-0.189,9.199c-1.959-14.758-0.145-29.419-0.145-45.589
			c0-9.333,1.006-18.663,1.36-27.961c0.698-18.922,1.241-37.706,2.735-55.879c0.36,10.108-0.716,20.532-1.371,31.229
			c-1.564,25.485-1.364,52.345-2.724,78.142c1.428-1.86,0.167-6.624,1.16-8.953v0.865c-0.105-7.49,0.6-15.355,0.712-23.102
			c-0.112,0.101-0.112,0.402-0.112,0.65c0.299-22.162,1.248-45.029,2.697-66.932c0.272,11.883-1.12,24.383-0.72,36.426
			c1.094-3.367,0.393-7.789,0.571-11.746c0.123-4.044,0.327-8.065,0.672-11.577c0.589,3.789-0.25,7.69-0.149,11.577
			c0.066-0.187,0.066-0.521,0.066-0.786c-0.066,13.264-1.753,27.117-2.17,41.168C260.203,317.695,259.871,328.844,259.173,339.534z
			 M262.118,326.591c-0.062,0.277,0.068,1.142-0.705,1.032c0.854,2.326-1.164,5.741-0.876,9.155
			c0.055,0.332-0.149,0.354-0.149,0.189c-0.185-11.002,2.091-19.362,2.401-30.218C262.406,312.068,263.271,321.084,262.118,326.591z
			 M260.697,323.158c-0.237-17.552,1.487-34.649,2.269-51.781C264.22,288.131,262.268,306.924,260.697,323.158z M271.591,21.913
			c0.692,0.778,0.545,2.392,1.21,3.279C271.609,25.526,271.038,23.29,271.591,21.913z M274.886,26.523
			c0.727-0.266,1.153,1.237,1.887,1.57C275.8,28.571,275.558,26.879,274.886,26.523z M296.09,323.501
			c-0.029-0.466-0.088-0.874,0.527-0.685c-1.382-1.142-0.193-2.238-0.703-4.167c0.217,0.2,0.343,0.523,0.703,0.523
			c0.389-0.567-0.661-0.679-0.863-1.221c-1.232-15.722-0.628-33.219,0.16-49.679c1.63,19.074,1.878,42.49,2.067,62.133
			c-0.382,0.077-0.242-0.29-0.494-0.343c-0.615,0.441,0.639,0.619,0.494,1.175c0.112,3.732-0.189,7.865,0.195,11.239
			c-0.244,0.332-0.244,0.887-0.69,1.043c0.055,0.312,0.804,1.843,0.167,1.553c-0.832,0.09,0.083-0.521-0.894-1.399
			C296.589,336.912,296.09,330.459,296.09,323.501z M296.967,345.228c0.371,0.266,0.773,0.507,1.21,0.72v0.854
			c-0.578,0.046-0.839-0.222-0.905-0.666c-0.532,0.666,0.738,0.953,0.905,1.542c-0.217,0.898-0.305,0.51,0,1.342
			c-0.327,0.365-0.839-0.046-1.21-0.145C296.967,348.057,297.061,346.071,296.967,345.228z M298.177,349.385
			c0.04,0.6-1.193,0.767-1.059,0H298.177z M297.793,361.804c0.055,0.321-0.136,0.354-0.136,0.165
			c-0.112-4.061-0.415-7.112-0.538-10.683v-0.545h0.538c-0.538,1.01,0.354,1.865,0.521,2.818
			C298.61,356.212,297.676,359.074,297.793,361.804z M277.1,29.825c0.378-0.2,1.087,0.778,1.57,1.032
			C278.023,31.334,277.561,30.112,277.1,29.825z M281.269,32.592c0.78,0.088,1.153,0.655,1.885,0.843
			c-0.112,0.51,0.029,0.819,0.228,1.032C282.615,33.903,281.807,33.37,281.269,32.592z M284.014,34.101
			c3.057,1.221,6.053,3.956,8.77,6.051C290.015,38.689,286.931,36.032,284.014,34.101z M287.294,37.769
			c1.885,0.832,4.175,2.719,6.075,4.131C291.302,41.191,289.051,39.221,287.294,37.769z M294.704,178.732
			c1.964,8.406,2.036,20.194,2.568,30.546C295.763,199.769,295.508,189.018,294.704,178.732z M291.421,41.725
			c0.767-0.099,1.724,1.142,2.939,1.221c0.345-0.466-0.543-0.887-0.854-1.221c1.21,0.332,2.64,1.953,4.151,2.596
			C295.236,44.453,292.939,43.021,291.421,41.725z M284.695,33.969c-2.917-1.72-6.047-2.724-7.417-5.875
			c10.235,3.484,16.359,11.017,23.816,17.264C295.302,43.078,290.582,37.402,284.695,33.969z M311.951,218.588
			c0.033,0.288-0.134,0.4-0.134,0.176c-0.055-2.974-0.472-5.651-0.36-8.821C312.656,211.869,312.012,215.878,311.951,218.588z
			 M312.994,260.872c-1.316-13.943-3.578-28.448-2.069-43.661c1.059,9.298,1.487,19.695,2.069,29.852
			C313.299,252.005,314.576,256.738,312.994,260.872z M318.364,63.287c1.142,0.821,0.993,2.895,1.691,4.171
			C319.507,66.705,318.338,65.185,318.364,63.287z M322.149,74.327c0.147,0.066,0.147,0.178,0.343,0.178
			c0.703,1.221,0.437,3.367,0.532,5.21C322.568,78.093,322.296,76.29,322.149,74.327z"/>
		<path d="M284.181,35.191c-0.25-0.211-0.413-0.422-0.668-0.6c0.195,0.178,0.415,0.277,0.668,0.389
			c0.193,0.521,0.677,0.589,0.859,1.054C284.665,35.81,284.386,35.522,284.181,35.191z"/>
		<path d="M209.54,358.206c0,0-0.641,4.298-5.858,11.437s-3.708,14.002,1.922,15.239s19.724-2.21,29.219-21.147l-13.844,0.417
			L209.54,358.206z"/>
		<path d="M234.153,367.983c0,0-5.897,20.33,13.321,17.721s12.208-21.002,12.208-21.002L234.153,367.983z"/>
		<path d="M260.203,366.474c0,0,3.057,10.47,11.362,8.845c0,0,4.667-0.734,4.736-6.361c0,0-0.549,3.431-2.928,4.529
			c0,0,2.425-1.281,1.922-5.034c-0.503-3.751-1.412-8.004-1.32-10.525l-5.359,4.85L260.203,366.474z"/>
		<path d="M202.384,371.655c0,0-6.596,8.265,0.749,14.281c0,0-6.247-5.311,0-13.822L202.384,371.655z"/>
		<path d="M229.815,354.268c0,0,1.116,4.217,5.647,5.436h-7.96l-0.413-5.985L229.815,354.268z"/>
		<path d="M234.496,380.612c0,0,2.546,9.348,14.167,7.426c0,0-7.848,0.824-10.936-3.98c0,0,4.461,5.748,15.65,1.878
			c0,0-11.944,3.132-14.413-3.664L234.496,380.612z"/>
		<path d="M297.656,367.983c0,0,0.885,9.484,10.976,9.142c0,0-6.201-0.297-7.894-4.096c0,0,2.882,5.263,13.82,3.431
			c0,0-6.453,0.595-9.06-1.647c0,0,5.948,3.066,12.173,0.046c0,0,1.968-1.234,2.014-3.249c0.046-2.014-5.276-3.525-5.838-7.666
			l-8.21,0.206L297.656,367.983z"/>
		<path d="M316.025,375.525c0,0,4.41-0.837,4.309-4.681c0,0-0.002,3.33-4.309,4.186V375.525z"/>
	</g>
</g>
</svg>
